<svg xmlns="http://www.w3.org/2000/svg" xmlns:xlink="http://www.w3.org/1999/xlink" height="43.3492" style="shape-rendering:geometricPrecision; text-rendering:geometricPrecision; image-rendering:optimizeQuality; fill-rule:evenodd; clip-rule:evenodd" viewBox="0 0 4335 4335" width="43.3492" xml:space="preserve"><defs><style type="text/css">   <![CDATA[    .fil1 {fill:#E31E24}    .fil2 {fill:white;fill-rule:nonzero}    .fil0 {fill:url(#id0)}   ]]>  </style><linearGradient gradientUnits="userSpaceOnUse" id="id0" x1="3065.08" x2="2180.4" y1="181.81" y2="1444.2"><stop offset="0" style="stop-color:#A42421"></stop><stop offset="1" style="stop-color:#E31E24"></stop></linearGradient></defs><g id="Layer_x0020_1"><path class="fil0" d="M3246 1422c-62,-54 -160,-106 -306,-106 -304,0 -573,0 -573,0 0,0 -252,-9 -252,-304 0,-295 0,-522 0,-522 0,0 -35,-209 -104,-269 -11,-9 -12,-15 -7,-16 -1,0 -2,1 -2,1l1244 1202 0 13 0 1zm-1220 -1216c3,1 5,1 8,2 -3,-1 -6,-1 -8,-2zm9 2c3,1 6,2 9,3 -3,-1 -6,-2 -9,-3zm51 18c4,2 9,4 14,6 -5,-2 -9,-4 -14,-6z"></path><path class="fil1" d="M1656 152l-489 0 -278 0 -284 0c0,0 -6,0 -16,0l-80 0c-143,0 -260,117 -260,260l0 104 0 156 0 2 0 6 0 2 0 8 0 14 0 17 0 0 0 20 0 20 0 4 0 27 0 13 0 18 0 28 0 5 0 36 0 7 0 32 0 19 0 23 0 29 0 15 0 40 0 7 0 49 0 1 0 50 0 8 0 45 0 15 0 40 0 20 0 36 0 26 0 32 0 32 0 28 0 37 0 24 0 41 0 21 0 45 0 20 0 49 0 17 0 52 0 15 0 55 0 13 0 57 0 12 0 9 0 49 0 10 0 59 0 10 0 60 0 9 0 30 0 30 0 9 0 30 0 30 0 9 0 60 0 10 0 59 0 10 0 59 0 12 0 18 0 1458c0,142 114,257 255,260l1 0 1 0 1 0 1 0 1 0 1 0 0 0 1 0 90 0 568 0 -316 0 891 0 1330 0c143,0 260,-117 260,-260l0 -1794 0 0 0 -317c0,-391 -338,-408 -338,-408 0,0 -304,0 -642,0 -338,0 -330,-347 -330,-347 0,0 0,-131 0,-529 0,-400 -365,-382 -365,-382l-2 -2zm-487 4040l0 0zm-316 0l0 0zm2395 -2770c-62,-55 -160,-106 -306,-106 -304,0 -573,0 -573,0 0,0 -252,-9 -252,-304 0,-295 0,-522 0,-522 0,0 -35,-209 -104,-269 -8,-7 -11,-12 -9,-15l1243 1201 0 -13c-324,-490 -594,-732 -784,-922 -91,-91 -202,-162 -292,-208 91,46 202,117 294,209 190,190 460,432 784,922l0 26 0 1z"></path><path class="fil2" d="M826 2195l353 0c77,0 134,18 173,55 39,37 57,88 57,156 0,69 -22,123 -63,162 -42,39 -105,59 -191,59l-116 0 0 254 -213 0 0 -685 0 0zm213 293l52 0c42,0 69,-8 86,-22 17,-14 25,-32 25,-54 0,-22 -8,-40 -22,-55 -14,-15 -42,-23 -82,-23l-60 0 0 152 0 2zm482 -293l314 0c62,0 112,8 151,25 39,17 69,42 95,72 25,32 43,68 54,109 11,42 17,86 17,132 0,74 -8,129 -25,171 -17,40 -40,74 -69,102 -29,28 -62,46 -96,54 -46,12 -88,18 -126,18l-314 0 0 -685 -2 2zm211 156l0 374 52 0c45,0 75,-5 96,-15 18,-9 34,-28 45,-51 11,-25 15,-65 15,-119 0,-72 -12,-122 -35,-149 -23,-26 -63,-40 -119,-40l-52 0 -2 0zm531 -156l524 0 0 148 -311 0 0 120 266 0 0 139 -266 0 0 279 -213 0 0 -685 0 0z"></path></g></svg>